<svg width="332" height="58" viewBox="0 0 332 58" fill="none" xmlns="http://www.w3.org/2000/svg">
<path d="M7.33545 1.62402H2.04004V42.6689H7.33545V43.8555H0.831543V0.4375H7.33545V1.62402ZM32.8896 23.311H23.4854V37H22.3428V5.00781H31.022C32.3403 5.03711 33.5854 5.27881 34.7573 5.73291C35.9292 6.17236 36.9546 6.79492 37.8335 7.60059C38.6978 8.40625 39.3789 9.37305 39.877 10.501C40.3896 11.6143 40.646 12.8594 40.646 14.2363C40.646 15.3496 40.4775 16.3604 40.1406 17.2686C39.8184 18.1621 39.3643 18.9678 38.7783 19.6855C38.1924 20.4033 37.4893 21.0332 36.6689 21.5752C35.8633 22.1172 34.9771 22.5786 34.0103 22.9595L41.8545 36.6924V37H40.646L32.8896 23.311ZM23.4854 22.1245H31.9888C33.0728 22.0952 34.0688 21.8682 34.9771 21.4434C35.8999 21.0186 36.6909 20.4473 37.3501 19.7295C38.0093 19.0264 38.522 18.2061 38.8882 17.2686C39.269 16.3164 39.4595 15.3057 39.4595 14.2363C39.4595 13.0205 39.2324 11.9219 38.7783 10.9404C38.3389 9.95898 37.7383 9.1167 36.9766 8.41357C36.2148 7.7251 35.314 7.19043 34.2739 6.80957C33.2485 6.42871 32.1572 6.22363 31 6.19434H23.4854V22.1245ZM66.1123 37C65.9365 36.2529 65.8193 35.5132 65.7607 34.7808C65.7021 34.0483 65.6655 33.3086 65.6509 32.5615C65.1382 33.3672 64.5229 34.0776 63.8052 34.6929C63.1021 35.3081 62.333 35.8135 61.498 36.209C60.6631 36.6191 59.7769 36.9268 58.8394 37.1318C57.9019 37.3369 56.9424 37.4395 55.9609 37.4395C55.0088 37.4395 54.0786 37.293 53.1704 37C52.2622 36.7217 51.4565 36.3115 50.7534 35.7695C50.0503 35.2275 49.4863 34.5537 49.0615 33.748C48.6367 32.9424 48.4243 32.0195 48.4243 30.9795C48.4243 29.5586 48.7686 28.3867 49.457 27.4639C50.1455 26.5264 51.0391 25.7793 52.1377 25.2227C53.2217 24.6807 54.4375 24.2998 55.7852 24.0801C57.1328 23.8604 58.4658 23.7432 59.7842 23.7285H65.6509V20.2568C65.6216 19.1875 65.4019 18.2573 64.9917 17.4663C64.5815 16.6753 64.0396 16.0234 63.3657 15.5107C62.6772 14.998 61.8789 14.6172 60.9707 14.3682C60.0771 14.1045 59.1323 13.9727 58.1362 13.9727C57.2573 13.9727 56.3564 14.0898 55.4336 14.3242C54.5254 14.5586 53.6978 14.9102 52.9507 15.3789C52.2036 15.8623 51.5811 16.4702 51.083 17.2026C50.585 17.9204 50.314 18.7773 50.27 19.7734L49.0835 19.7295C49.1421 18.5723 49.4497 17.5615 50.0063 16.6973C50.5776 15.833 51.2954 15.1079 52.1597 14.522C53.0093 13.9507 53.9541 13.5186 54.9941 13.2256C56.0488 12.9326 57.0962 12.7861 58.1362 12.7861C59.3081 12.7861 60.4141 12.9473 61.4541 13.2695C62.5088 13.5771 63.4316 14.0386 64.2227 14.6538C65.0137 15.2837 65.6362 16.0747 66.0903 17.0269C66.5591 17.9644 66.8081 19.0557 66.8374 20.3008V32.21C66.8521 33.0156 66.9253 33.7847 67.0571 34.5171C67.189 35.2495 67.3281 36.0112 67.4746 36.8022L67.4966 37H66.1123ZM55.9609 36.2749C57.001 36.2896 58.0044 36.1797 58.9712 35.9453C59.9526 35.6963 60.8682 35.3301 61.7178 34.8467C62.5527 34.3633 63.3071 33.7627 63.981 33.0449C64.6548 32.3271 65.2114 31.4995 65.6509 30.562V24.937H59.8501C58.6636 24.9663 57.4185 25.0688 56.1147 25.2446C54.811 25.4204 53.6465 25.7866 52.6211 26.3433C51.7129 26.8267 50.9805 27.4492 50.4238 28.2109C49.8672 28.958 49.5962 29.9102 49.6108 31.0674C49.6108 31.9023 49.8013 32.6494 50.1821 33.3086C50.563 33.9531 51.061 34.4951 51.6763 34.9346C52.2769 35.374 52.9507 35.7109 53.6978 35.9453C54.4595 36.165 55.2139 36.2749 55.9609 36.2749ZM75.2969 24.8711C75.2969 23.4502 75.458 22.0513 75.7803 20.6743C76.1172 19.2974 76.6812 17.9424 77.4722 16.6094C78.1606 15.4375 79.1055 14.5073 80.3066 13.8188C81.5225 13.1304 82.9873 12.7861 84.7012 12.7861C85.4629 12.7861 86.21 12.8887 86.9424 13.0938C87.6895 13.2988 88.3926 13.5918 89.0518 13.9727C89.7109 14.3535 90.3188 14.8149 90.8755 15.3569C91.4321 15.8989 91.9155 16.5068 92.3257 17.1807V13.2256H93.5122V46.1406H92.3257V33.5503C91.9009 34.1655 91.3955 34.7148 90.8096 35.1982C90.2236 35.6816 89.5938 36.0845 88.9199 36.4067C88.2461 36.7437 87.543 37 86.8105 37.1758C86.0781 37.3516 85.3604 37.4395 84.6572 37.4395C82.958 37.4395 81.5298 37.0806 80.3726 36.3628C79.2153 35.645 78.2559 34.7222 77.4941 33.5942C76.7324 32.4517 76.1758 31.1406 75.8242 29.6611C75.4727 28.1816 75.2969 26.7388 75.2969 25.3325V24.8711ZM76.5273 25.3325C76.5273 26.563 76.6665 27.8374 76.9448 29.1558C77.2231 30.4595 77.6846 31.646 78.3291 32.7153C78.9443 33.6968 79.7573 34.5317 80.7681 35.2202C81.7935 35.9087 83.0825 36.2529 84.6353 36.2529C85.4116 36.2529 86.188 36.1504 86.9644 35.9453C87.7554 35.7256 88.4951 35.4106 89.1836 35.0005C89.8721 34.5903 90.4873 34.085 91.0293 33.4844C91.5859 32.8691 92.0181 32.1733 92.3257 31.397V19.6196C92.0327 18.7847 91.6299 18.0229 91.1172 17.3345C90.6045 16.646 90.0112 16.0527 89.3374 15.5547C88.6636 15.0566 87.9238 14.6685 87.1182 14.3901C86.3271 14.1118 85.5142 13.9727 84.6792 13.9727C83.1558 13.9727 81.8887 14.3022 80.8779 14.9614C79.8672 15.606 79.0396 16.4263 78.395 17.4224C77.6626 18.5649 77.1646 19.7808 76.9009 21.0698C76.6519 22.3589 76.5273 23.626 76.5273 24.8711V25.3325ZM119.616 37L119.638 32.7593C118.876 34.2241 117.785 35.374 116.364 36.209C114.958 37.0293 113.236 37.4395 111.2 37.4395C109.823 37.4395 108.629 37.2051 107.619 36.7363C106.623 36.2676 105.802 35.623 105.158 34.8027C104.499 33.9971 104.008 33.0376 103.686 31.9243C103.363 30.811 103.195 29.6099 103.18 28.3208V13.2256H104.367V28.3647C104.381 29.4634 104.521 30.4888 104.784 31.4409C105.048 32.3931 105.458 33.228 106.015 33.9458C106.557 34.6636 107.252 35.2275 108.102 35.6377C108.952 36.0479 109.97 36.2529 111.156 36.2529C112.299 36.2529 113.346 36.1064 114.298 35.8135C115.25 35.5059 116.093 35.0664 116.825 34.4951C117.543 33.9385 118.136 33.2573 118.605 32.4517C119.088 31.6313 119.433 30.7085 119.638 29.6831L119.616 13.2256H120.846V37H119.616ZM130.712 13.2256H140.622V35.8135H149.059V37H130.712V35.8135H139.435V14.4121H130.712V13.2256ZM138.424 6.45801C138.424 6.25293 138.446 6.05518 138.49 5.86475C138.534 5.65967 138.615 5.47656 138.732 5.31543C138.849 5.16895 139.003 5.05176 139.193 4.96387C139.398 4.87598 139.655 4.83203 139.962 4.83203C140.255 4.83203 140.497 4.87598 140.688 4.96387C140.893 5.05176 141.061 5.16895 141.193 5.31543C141.31 5.47656 141.391 5.65967 141.435 5.86475C141.493 6.05518 141.522 6.25293 141.522 6.45801C141.522 6.85352 141.405 7.2124 141.171 7.53467C140.951 7.85693 140.548 8.01807 139.962 8.01807C139.362 8.01807 138.952 7.85693 138.732 7.53467C138.527 7.2124 138.424 6.85352 138.424 6.45801ZM175.624 25.3325C175.609 26.2554 175.529 27.2002 175.382 28.167C175.236 29.1191 175.009 30.042 174.701 30.9355C174.394 31.8291 173.991 32.6714 173.493 33.4624C173.009 34.2534 172.423 34.9419 171.735 35.5278C171.032 36.1138 170.226 36.5825 169.318 36.9341C168.424 37.271 167.406 37.4395 166.264 37.4395C165.546 37.4395 164.821 37.3516 164.088 37.1758C163.356 37 162.653 36.7437 161.979 36.4067C161.291 36.0698 160.653 35.6597 160.067 35.1763C159.496 34.6782 159.005 34.1143 158.595 33.4844V37H157.409V3.25H158.595V17.2686C158.991 16.5947 159.467 15.9795 160.023 15.4229C160.58 14.8662 161.188 14.3901 161.847 13.9946C162.506 13.6138 163.202 13.3208 163.935 13.1157C164.682 12.896 165.443 12.7861 166.22 12.7861C167.377 12.7861 168.41 12.9546 169.318 13.2915C170.241 13.6284 171.046 14.0825 171.735 14.6538C172.423 15.2397 173.009 15.9282 173.493 16.7192C173.991 17.5103 174.401 18.3525 174.723 19.2461C175.031 20.1396 175.25 21.0698 175.382 22.0366C175.529 22.9888 175.609 23.9336 175.624 24.8711V25.3325ZM174.394 24.8711C174.379 24.0654 174.313 23.2378 174.196 22.3882C174.079 21.5239 173.896 20.689 173.646 19.8833C173.383 19.0776 173.046 18.3159 172.636 17.5981C172.226 16.8804 171.72 16.2505 171.12 15.7085C170.504 15.1812 169.794 14.7637 168.988 14.4561C168.197 14.1338 167.282 13.9727 166.242 13.9727C165.363 13.9727 164.521 14.1118 163.715 14.3901C162.909 14.6685 162.177 15.064 161.518 15.5767C160.844 16.0894 160.25 16.7046 159.738 17.4224C159.24 18.1255 158.859 18.9019 158.595 19.7515V31.2651C158.874 32.0708 159.284 32.7886 159.826 33.4185C160.382 34.0337 161.005 34.5537 161.693 34.9785C162.382 35.4033 163.122 35.7256 163.913 35.9453C164.704 36.1504 165.495 36.2529 166.286 36.2529C167.311 36.2529 168.227 36.0991 169.032 35.7915C169.838 35.4692 170.541 35.0371 171.142 34.4951C171.728 33.9531 172.226 33.3232 172.636 32.6055C173.061 31.8877 173.405 31.126 173.668 30.3203C173.917 29.5146 174.093 28.687 174.196 27.8374C174.313 26.9878 174.379 26.1528 174.394 25.3325V24.8711ZM217.394 20.2129L212.714 24.8491V37H211.571V5.00781H212.714V23.4429L217.482 18.3892L229.721 5.00781H231.347L218.229 19.3779L232.357 37H230.885L217.394 20.2129ZM239.455 18.9604C239.835 18.0815 240.319 17.2686 240.905 16.5215C241.491 15.7598 242.165 15.1006 242.926 14.5439C243.673 14.002 244.501 13.5771 245.409 13.2695C246.317 12.9473 247.292 12.7861 248.332 12.7861C249.694 12.7861 250.873 13.0059 251.869 13.4453C252.865 13.8848 253.686 14.4927 254.33 15.269C254.975 16.0601 255.451 16.9976 255.758 18.0815C256.081 19.1655 256.249 20.3447 256.264 21.6191V37H255.055V21.6191C255.041 20.5059 254.901 19.4805 254.638 18.543C254.389 17.5908 253.993 16.7705 253.451 16.082C252.895 15.4082 252.191 14.8809 251.342 14.5C250.492 14.1191 249.467 13.936 248.266 13.9507C247.196 13.9653 246.178 14.1777 245.211 14.5879C244.245 14.998 243.373 15.5474 242.597 16.2358C241.806 16.9243 241.139 17.73 240.597 18.6528C240.055 19.5757 239.674 20.5498 239.455 21.5752V37H238.246V3.25H239.455V18.9604ZM282.323 37C282.147 36.2529 282.03 35.5132 281.972 34.7808C281.913 34.0483 281.876 33.3086 281.862 32.5615C281.349 33.3672 280.734 34.0776 280.016 34.6929C279.313 35.3081 278.544 35.8135 277.709 36.209C276.874 36.6191 275.988 36.9268 275.05 37.1318C274.113 37.3369 273.153 37.4395 272.172 37.4395C271.22 37.4395 270.29 37.293 269.381 37C268.473 36.7217 267.667 36.3115 266.964 35.7695C266.261 35.2275 265.697 34.5537 265.272 33.748C264.848 32.9424 264.635 32.0195 264.635 30.9795C264.635 29.5586 264.979 28.3867 265.668 27.4639C266.356 26.5264 267.25 25.7793 268.349 25.2227C269.433 24.6807 270.648 24.2998 271.996 24.0801C273.344 23.8604 274.677 23.7432 275.995 23.7285H281.862V20.2568C281.833 19.1875 281.613 18.2573 281.203 17.4663C280.792 16.6753 280.25 16.0234 279.577 15.5107C278.888 14.998 278.09 14.6172 277.182 14.3682C276.288 14.1045 275.343 13.9727 274.347 13.9727C273.468 13.9727 272.567 14.0898 271.645 14.3242C270.736 14.5586 269.909 14.9102 269.162 15.3789C268.415 15.8623 267.792 16.4702 267.294 17.2026C266.796 17.9204 266.525 18.7773 266.481 19.7734L265.294 19.7295C265.353 18.5723 265.661 17.5615 266.217 16.6973C266.789 15.833 267.506 15.1079 268.371 14.522C269.22 13.9507 270.165 13.5186 271.205 13.2256C272.26 12.9326 273.307 12.7861 274.347 12.7861C275.519 12.7861 276.625 12.9473 277.665 13.2695C278.72 13.5771 279.643 14.0386 280.434 14.6538C281.225 15.2837 281.847 16.0747 282.301 17.0269C282.77 17.9644 283.019 19.0557 283.048 20.3008V32.21C283.063 33.0156 283.136 33.7847 283.268 34.5171C283.4 35.2495 283.539 36.0112 283.686 36.8022L283.708 37H282.323ZM272.172 36.2749C273.212 36.2896 274.215 36.1797 275.182 35.9453C276.164 35.6963 277.079 35.3301 277.929 34.8467C278.764 34.3633 279.518 33.7627 280.192 33.0449C280.866 32.3271 281.422 31.4995 281.862 30.562V24.937H276.061C274.875 24.9663 273.629 25.0688 272.326 25.2446C271.022 25.4204 269.857 25.7866 268.832 26.3433C267.924 26.8267 267.191 27.4492 266.635 28.2109C266.078 28.958 265.807 29.9102 265.822 31.0674C265.822 31.9023 266.012 32.6494 266.393 33.3086C266.774 33.9531 267.272 34.4951 267.887 34.9346C268.488 35.374 269.162 35.7109 269.909 35.9453C270.67 36.165 271.425 36.2749 272.172 36.2749ZM292.277 37V13.2256H293.485V18.9385C293.866 18.0596 294.342 17.2466 294.914 16.4995C295.5 15.7378 296.173 15.0859 296.935 14.5439C297.682 14.002 298.51 13.5771 299.418 13.2695C300.326 12.9473 301.3 12.7861 302.34 12.7861C303.703 12.7861 304.875 13.0059 305.856 13.4453C306.852 13.8848 307.672 14.4927 308.317 15.269C308.961 16.0601 309.438 16.9976 309.745 18.0815C310.067 19.1655 310.229 20.3447 310.229 21.6191L310.25 37H309.042V21.6191C309.027 20.5059 308.888 19.4805 308.625 18.543C308.375 17.5908 307.98 16.7705 307.438 16.082C306.896 15.4082 306.2 14.8809 305.351 14.5C304.501 14.1191 303.476 13.936 302.274 13.9507C301.205 13.9653 300.187 14.1777 299.22 14.5879C298.253 14.998 297.382 15.5474 296.605 16.2358C295.829 16.9243 295.17 17.73 294.628 18.6528C294.086 19.5757 293.705 20.5498 293.485 21.5752V37H292.277ZM324.643 0.4375H331.125V43.8555H324.643V42.6689H329.894V1.62402H324.643V0.4375ZM132.504 54.1113C132.732 54.1113 132.953 54.0749 133.167 54.002C133.386 53.929 133.579 53.8265 133.748 53.6943C133.917 53.5667 134.051 53.4163 134.151 53.2432C134.256 53.0654 134.311 52.874 134.315 52.6689H135.512C135.507 52.9971 135.421 53.3115 135.252 53.6123C135.088 53.9085 134.867 54.1683 134.589 54.3916C134.311 54.6195 133.992 54.8018 133.632 54.9385C133.272 55.0706 132.896 55.1367 132.504 55.1367C131.943 55.1367 131.453 55.0365 131.034 54.8359C130.615 54.6354 130.266 54.3643 129.988 54.0225C129.706 53.6852 129.494 53.2956 129.353 52.8535C129.211 52.4069 129.141 51.9375 129.141 51.4453V51.1582C129.141 50.6706 129.211 50.2035 129.353 49.7568C129.494 49.3102 129.706 48.916 129.988 48.5742C130.266 48.237 130.615 47.9681 131.034 47.7676C131.453 47.5671 131.943 47.4668 132.504 47.4668C132.941 47.4668 133.342 47.5374 133.707 47.6787C134.076 47.8154 134.395 48.0023 134.664 48.2393C134.928 48.4808 135.136 48.7656 135.286 49.0938C135.437 49.4219 135.512 49.7728 135.512 50.1465H134.315C134.311 49.9232 134.261 49.7135 134.165 49.5176C134.074 49.3171 133.949 49.1416 133.789 48.9912C133.63 48.8408 133.438 48.7223 133.215 48.6357C132.996 48.5492 132.759 48.5059 132.504 48.5059C132.112 48.5059 131.782 48.5856 131.513 48.7451C131.248 48.9001 131.034 49.1029 130.87 49.3535C130.706 49.6087 130.588 49.8936 130.515 50.208C130.446 50.5225 130.412 50.8392 130.412 51.1582V51.4453C130.412 51.7689 130.446 52.0902 130.515 52.4092C130.588 52.7236 130.706 53.0062 130.87 53.2568C131.03 53.512 131.242 53.7194 131.506 53.8789C131.775 54.0339 132.107 54.1113 132.504 54.1113ZM137.405 51.2334C137.405 50.7002 137.483 50.2057 137.638 49.75C137.793 49.2897 138.016 48.891 138.308 48.5537C138.595 48.2165 138.946 47.9521 139.36 47.7607C139.775 47.5648 140.242 47.4668 140.762 47.4668C141.286 47.4668 141.755 47.5648 142.17 47.7607C142.589 47.9521 142.945 48.2165 143.236 48.5537C143.523 48.891 143.744 49.2897 143.899 49.75C144.054 50.2057 144.132 50.7002 144.132 51.2334V51.3838C144.132 51.917 144.054 52.4115 143.899 52.8672C143.744 53.3229 143.523 53.7194 143.236 54.0566C142.945 54.3939 142.591 54.6582 142.177 54.8496C141.762 55.041 141.295 55.1367 140.775 55.1367C140.251 55.1367 139.78 55.041 139.36 54.8496C138.946 54.6582 138.595 54.3939 138.308 54.0566C138.016 53.7194 137.793 53.3229 137.638 52.8672C137.483 52.4115 137.405 51.917 137.405 51.3838V51.2334ZM138.67 51.3838C138.67 51.7484 138.713 52.097 138.8 52.4297C138.886 52.7578 139.019 53.0472 139.196 53.2979C139.369 53.5485 139.588 53.7467 139.853 53.8926C140.117 54.0384 140.424 54.1113 140.775 54.1113C141.122 54.1113 141.425 54.0384 141.685 53.8926C141.949 53.7467 142.17 53.5485 142.348 53.2979C142.521 53.0472 142.651 52.7578 142.737 52.4297C142.824 52.097 142.867 51.7484 142.867 51.3838V51.2334C142.867 50.8734 142.822 50.5293 142.73 50.2012C142.644 49.8685 142.514 49.5768 142.341 49.3262C142.163 49.0755 141.942 48.8773 141.678 48.7314C141.418 48.5811 141.113 48.5059 140.762 48.5059C140.411 48.5059 140.105 48.5811 139.846 48.7314C139.586 48.8773 139.369 49.0755 139.196 49.3262C139.019 49.5768 138.886 49.8685 138.8 50.2012C138.713 50.5293 138.67 50.8734 138.67 51.2334V51.3838ZM145.93 51.2402C145.93 50.6888 145.998 50.1829 146.135 49.7227C146.276 49.2578 146.477 48.859 146.736 48.5264C146.992 48.1937 147.301 47.9339 147.666 47.7471C148.031 47.5602 148.438 47.4668 148.89 47.4668C149.332 47.4668 149.717 47.542 150.045 47.6924C150.378 47.8382 150.665 48.0524 150.906 48.335V44.5H152.171V55H151.009L150.954 54.2207C150.708 54.5215 150.414 54.7493 150.072 54.9043C149.73 55.0592 149.332 55.1367 148.876 55.1367C148.429 55.1367 148.024 55.041 147.659 54.8496C147.299 54.6582 146.992 54.3939 146.736 54.0566C146.481 53.7194 146.283 53.3229 146.142 52.8672C146 52.4069 145.93 51.9124 145.93 51.3838V51.2402ZM147.194 51.3838C147.194 51.7438 147.233 52.0856 147.311 52.4092C147.388 52.7327 147.509 53.0176 147.673 53.2637C147.832 53.5098 148.037 53.7057 148.288 53.8516C148.539 53.9928 148.84 54.0635 149.19 54.0635C149.614 54.0635 149.965 53.9678 150.243 53.7764C150.521 53.585 150.742 53.3275 150.906 53.0039V49.5723C150.742 49.2715 150.521 49.0254 150.243 48.834C149.965 48.638 149.619 48.54 149.204 48.54C148.849 48.54 148.543 48.613 148.288 48.7588C148.037 48.9046 147.832 49.1006 147.673 49.3467C147.509 49.5973 147.388 49.8867 147.311 50.2148C147.233 50.5384 147.194 50.8802 147.194 51.2402V51.3838ZM157.845 55.1367C157.325 55.1367 156.847 55.0479 156.409 54.8701C155.976 54.6924 155.605 54.444 155.295 54.125C154.985 53.806 154.743 53.4277 154.57 52.9902C154.397 52.5527 154.311 52.0765 154.311 51.5615V51.2744C154.311 50.6774 154.406 50.1442 154.598 49.6748C154.789 49.2008 155.044 48.7998 155.363 48.4717C155.678 48.1481 156.035 47.8997 156.437 47.7266C156.842 47.5534 157.257 47.4668 157.681 47.4668C158.214 47.4668 158.679 47.5602 159.075 47.7471C159.476 47.9294 159.809 48.1823 160.073 48.5059C160.338 48.834 160.534 49.2191 160.661 49.6611C160.793 50.1032 160.859 50.5817 160.859 51.0967V51.6641H155.575V51.7119C155.607 52.0719 155.678 52.3887 155.787 52.6621C155.901 52.9355 156.056 53.1771 156.252 53.3867C156.452 53.61 156.694 53.7855 156.977 53.9131C157.259 54.0407 157.571 54.1045 157.913 54.1045C158.364 54.1045 158.765 54.0133 159.116 53.8311C159.467 53.6488 159.759 53.4072 159.991 53.1064L160.764 53.708C160.518 54.0817 160.148 54.4144 159.656 54.7061C159.169 54.9932 158.565 55.1367 157.845 55.1367ZM157.681 48.5059C157.425 48.5059 157.184 48.5537 156.956 48.6494C156.728 48.7406 156.523 48.875 156.341 49.0527C156.159 49.235 156.004 49.4583 155.876 49.7227C155.753 49.9824 155.666 50.2832 155.616 50.625H159.595V50.5635C159.595 50.3356 159.551 50.0918 159.465 49.832C159.378 49.5677 159.257 49.3398 159.103 49.1484C158.948 48.957 158.752 48.8021 158.515 48.6836C158.282 48.5651 158.004 48.5059 157.681 48.5059ZM177.662 51.3838C177.662 51.7074 177.637 52.0195 177.587 52.3203C177.541 52.6165 177.473 52.8945 177.382 53.1543C177.259 53.4961 177.097 53.8037 176.896 54.0771C176.701 54.346 176.464 54.5693 176.186 54.7471C175.985 54.8701 175.764 54.9658 175.522 55.0342C175.285 55.1025 175.028 55.1367 174.75 55.1367C174.431 55.1367 174.139 55.098 173.875 55.0205C173.615 54.943 173.381 54.8314 173.171 54.6855C173.071 54.6126 172.975 54.5329 172.884 54.4463C172.793 54.3597 172.706 54.264 172.624 54.1592L172.562 55H171.4V44.5H172.665V48.3965C172.77 48.2643 172.886 48.1458 173.014 48.041C173.141 47.9316 173.278 47.8382 173.424 47.7607C173.606 47.665 173.807 47.5921 174.025 47.542C174.244 47.4919 174.481 47.4668 174.736 47.4668C175.055 47.4668 175.349 47.5101 175.618 47.5967C175.887 47.6833 176.131 47.804 176.35 47.959C176.546 48.1048 176.721 48.2826 176.876 48.4922C177.031 48.6973 177.168 48.9274 177.286 49.1826C177.409 49.4697 177.503 49.7887 177.566 50.1396C177.63 50.486 177.662 50.8529 177.662 51.2402V51.3838ZM176.397 51.2402C176.397 51.0078 176.382 50.7822 176.35 50.5635C176.322 50.3402 176.279 50.1305 176.22 49.9346C176.138 49.693 176.031 49.472 175.898 49.2715C175.766 49.071 175.604 48.9137 175.413 48.7998C175.281 48.7178 175.133 48.654 174.969 48.6084C174.805 48.5628 174.622 48.54 174.422 48.54C174.203 48.54 174.003 48.5697 173.82 48.6289C173.638 48.6836 173.476 48.7611 173.335 48.8613C173.189 48.9661 173.059 49.0892 172.945 49.2305C172.836 49.3672 172.743 49.5176 172.665 49.6816V52.915C172.747 53.0791 172.843 53.2318 172.952 53.373C173.066 53.5098 173.196 53.6305 173.342 53.7354C173.488 53.8402 173.652 53.9222 173.834 53.9814C174.016 54.0361 174.217 54.0635 174.436 54.0635C174.645 54.0635 174.837 54.0384 175.01 53.9883C175.183 53.9336 175.338 53.8561 175.475 53.7559C175.657 53.6283 175.81 53.4665 175.933 53.2705C176.056 53.0745 176.154 52.8558 176.227 52.6143C176.286 52.432 176.329 52.236 176.356 52.0264C176.384 51.8167 176.397 51.6025 176.397 51.3838V51.2402ZM180 44.5H183.78V53.9062H186.193V55H180V53.9062H182.516V45.6006H180V44.5ZM187.854 51.2334C187.854 50.7002 187.932 50.2057 188.087 49.75C188.242 49.2897 188.465 48.891 188.757 48.5537C189.044 48.2165 189.395 47.9521 189.81 47.7607C190.224 47.5648 190.691 47.4668 191.211 47.4668C191.735 47.4668 192.204 47.5648 192.619 47.7607C193.038 47.9521 193.394 48.2165 193.686 48.5537C193.973 48.891 194.194 49.2897 194.349 49.75C194.504 50.2057 194.581 50.7002 194.581 51.2334V51.3838C194.581 51.917 194.504 52.4115 194.349 52.8672C194.194 53.3229 193.973 53.7194 193.686 54.0566C193.394 54.3939 193.041 54.6582 192.626 54.8496C192.211 55.041 191.744 55.1367 191.225 55.1367C190.701 55.1367 190.229 55.041 189.81 54.8496C189.395 54.6582 189.044 54.3939 188.757 54.0566C188.465 53.7194 188.242 53.3229 188.087 52.8672C187.932 52.4115 187.854 51.917 187.854 51.3838V51.2334ZM189.119 51.3838C189.119 51.7484 189.162 52.097 189.249 52.4297C189.336 52.7578 189.468 53.0472 189.646 53.2979C189.819 53.5485 190.037 53.7467 190.302 53.8926C190.566 54.0384 190.874 54.1113 191.225 54.1113C191.571 54.1113 191.874 54.0384 192.134 53.8926C192.398 53.7467 192.619 53.5485 192.797 53.2979C192.97 53.0472 193.1 52.7578 193.187 52.4297C193.273 52.097 193.316 51.7484 193.316 51.3838V51.2334C193.316 50.8734 193.271 50.5293 193.18 50.2012C193.093 49.8685 192.963 49.5768 192.79 49.3262C192.612 49.0755 192.391 48.8773 192.127 48.7314C191.867 48.5811 191.562 48.5059 191.211 48.5059C190.86 48.5059 190.555 48.5811 190.295 48.7314C190.035 48.8773 189.819 49.0755 189.646 49.3262C189.468 49.5768 189.336 49.8685 189.249 50.2012C189.162 50.5293 189.119 50.8734 189.119 51.2334V51.3838ZM196.386 51.2402C196.386 50.6888 196.452 50.1829 196.584 49.7227C196.721 49.2578 196.917 48.859 197.172 48.5264C197.427 48.1937 197.737 47.9339 198.102 47.7471C198.466 47.5602 198.879 47.4668 199.339 47.4668C199.635 47.4668 199.906 47.501 200.152 47.5693C200.403 47.6377 200.629 47.738 200.829 47.8701C200.938 47.9385 201.041 48.0182 201.137 48.1094C201.237 48.2005 201.33 48.3008 201.417 48.4102L201.479 47.6035H202.627V54.8428C202.627 55.3304 202.549 55.7633 202.395 56.1416C202.244 56.5199 202.032 56.8411 201.759 57.1055C201.481 57.3698 201.15 57.5703 200.768 57.707C200.385 57.8438 199.961 57.9121 199.496 57.9121C199.305 57.9121 199.086 57.8893 198.84 57.8438C198.594 57.8027 198.345 57.7321 198.095 57.6318C197.84 57.5361 197.593 57.4062 197.356 57.2422C197.124 57.0781 196.924 56.8753 196.755 56.6338L197.411 55.875C197.566 56.0618 197.726 56.2191 197.89 56.3467C198.054 56.4788 198.22 56.5837 198.389 56.6611C198.557 56.7386 198.726 56.7933 198.895 56.8252C199.063 56.8617 199.232 56.8799 199.4 56.8799C199.701 56.8799 199.972 56.8366 200.214 56.75C200.455 56.6634 200.663 56.5358 200.836 56.3672C201.005 56.2031 201.134 55.998 201.226 55.752C201.317 55.5059 201.362 55.2233 201.362 54.9043V54.2686C201.267 54.3779 201.164 54.4782 201.055 54.5693C200.95 54.6605 200.836 54.7402 200.713 54.8086C200.521 54.9134 200.31 54.9932 200.077 55.0479C199.845 55.1071 199.594 55.1367 199.325 55.1367C198.874 55.1367 198.466 55.041 198.102 54.8496C197.737 54.6582 197.429 54.3939 197.179 54.0566C196.924 53.7194 196.728 53.3229 196.591 52.8672C196.454 52.4069 196.386 51.9124 196.386 51.3838V51.2402ZM197.65 51.3838C197.65 51.7438 197.687 52.0856 197.76 52.4092C197.837 52.7327 197.958 53.0176 198.122 53.2637C198.282 53.5098 198.487 53.7057 198.737 53.8516C198.988 53.9928 199.289 54.0635 199.64 54.0635C199.858 54.0635 200.054 54.0384 200.228 53.9883C200.405 53.9336 200.565 53.8584 200.706 53.7627C200.843 53.667 200.966 53.5531 201.075 53.4209C201.185 53.2887 201.28 53.1429 201.362 52.9834V49.5928C201.28 49.4378 201.185 49.2965 201.075 49.1689C200.966 49.0413 200.84 48.9297 200.699 48.834C200.558 48.7428 200.401 48.6722 200.228 48.6221C200.054 48.5674 199.863 48.54 199.653 48.54C199.298 48.54 198.993 48.613 198.737 48.7588C198.487 48.9046 198.282 49.1006 198.122 49.3467C197.958 49.5973 197.837 49.8867 197.76 50.2148C197.687 50.5384 197.65 50.8802 197.65 51.2402V51.3838Z" fill="black"/>
</svg>
