<?xml version="1.0" standalone="no"?>
<!DOCTYPE svg PUBLIC "-//W3C//DTD SVG 20010904//EN"
 "http://www.w3.org/TR/2001/REC-SVG-20010904/DTD/svg10.dtd">
<svg version="1.0" xmlns="http://www.w3.org/2000/svg"
 width="920.000000pt" height="920.000000pt" viewBox="0 0 920.000000 920.000000"
 preserveAspectRatio="xMidYMid meet">

<g transform="translate(0.000000,920.000000) scale(0.100000,-0.100000)"
fill="#000000" stroke="none">
<path d="M3720 7470 l0 -220 -222 0 -223 0 3 -440 2 -440 220 0 220 0 0 -440
0 -440 440 0 440 0 -2 216 -3 217 -217 -1 c-120 0 -219 3 -219 6 -1 4 -2 105
-3 225 l-1 217 222 0 223 0 0 220 0 220 445 0 445 0 0 -440 0 -440 218 0 217
0 0 440 0 440 270 1 c273 1 605 0 616 -1 3 0 5 -99 5 -220 l-1 -220 222 0 223
0 0 -220 0 -220 220 0 220 0 0 -220 0 -220 220 0 220 0 0 660 0 660 -445 0
-445 0 0 220 0 220 -662 2 -663 3 -1 215 -1 215 -1102 3 -1101 2 0 -220z"/>
<path d="M2832 5709 l3 -661 430 0 c237 0 435 1 440 1 6 1 9 78 7 216 l-3 215
-219 0 -220 0 0 445 0 445 -220 0 -220 0 2 -661z"/>
<path d="M5958 5922 l-28 -3 0 -220 0 -219 -220 0 -220 0 0 -218 0 -217 660 0
c435 0 660 -3 661 -10 1 -13 1 -406 0 -422 -1 -10 -494 -13 -2431 -13 l-2430
0 -2 -222 -3 -223 -217 -3 -218 -2 0 -215 0 -215 220 0 220 0 0 -223 0 -222
663 0 662 0 0 -445 0 -445 -222 -2 -223 -2 0 224 0 225 -220 0 -220 0 0 -224
0 -225 -220 2 -220 2 0 -222 0 -223 -220 0 -220 0 0 -440 0 -440 215 0 215 0
2 223 3 222 443 3 442 2 0 -225 0 -225 885 0 885 0 0 225 0 225 663 0 662 0 0
217 0 218 1108 3 1107 2 0 1100 0 1100 -220 0 -220 0 0 -440 0 -440 -445 0
-445 0 0 -220 0 -220 -220 0 -220 0 0 220 c0 169 3 220 13 221 6 1 104 2 217
3 l205 1 3 663 2 662 220 0 220 0 2 223 3 222 218 0 217 0 0 218 0 217 -660 0
-660 0 0 220 c0 121 -3 220 -7 221 -31 2 -384 3 -405 1z m-35 -2651 c4 -1 7
-100 7 -221 l0 -220 -225 0 -225 0 0 218 c0 120 2 221 4 223 4 3 412 3 439 0z"/>
</g>
</svg>
