<svg width="78" height="86" viewBox="0 0 78 86" fill="none" xmlns="http://www.w3.org/2000/svg">
<g clip-path="url(#clip0_2_9)">
<path d="M31.0816 0.470264C34.1607 -0.12433 37.3097 0.102697 40.4265 0.0594535C52.9474 0.0594535 65.4683 0.0702644 77.9838 0.0594535C73.1445 5.4108 68.2944 10.7513 63.4443 16.0919C55.1868 16.0955 46.9292 16.0955 38.6716 16.0919C31.7652 16.1243 24.9234 18.9567 19.9979 23.8162C15.6 28.0919 12.7416 33.9297 12.0903 40.0432C9.67868 35.7135 8.48903 30.6973 8.74203 25.7405C8.99503 20.4 10.8845 15.1459 14.0981 10.8811C18.1731 5.4108 24.3851 1.63243 31.0816 0.470264Z" fill="#EF3D4A"/>
<path d="M36.6799 21.5027C42.7735 20.827 49.1093 22.8595 53.6418 27.0108C56.258 29.3622 58.282 32.3676 59.4878 35.6811C61.6841 41.6811 61.0327 48.6703 57.6952 54.1243C54.3147 59.8216 48.2157 63.773 41.6538 64.5135C35.458 65.3027 28.9768 63.2649 24.3636 59.0378C19.8957 55.0378 17.2257 49.0973 17.2526 43.0865C17.188 36.8486 20.041 30.6919 24.7727 26.6595C28.0994 23.7784 32.3143 21.9622 36.6799 21.5027Z" fill="#EF3D4A"/>
<path d="M65.942 46.0162C69.1934 51.8162 70.1946 58.8432 68.6066 65.3135C67.2447 71.0865 63.9019 76.3567 59.2725 80.0432C55.1383 83.3567 50.0244 85.4162 44.7545 85.8811C43.3172 86.0324 41.8745 85.9784 40.4319 85.9892C26.9636 85.9892 13.4952 85.9838 0.0269165 85.9892C4.86805 80.6486 9.71277 75.3099 14.5611 69.973C21.6721 69.9946 28.783 69.973 35.8886 69.9784C37.9772 69.9676 40.0712 70.0432 42.1491 69.7892C48.711 69.0649 54.9499 65.8108 59.3263 60.8486C62.9975 56.7513 65.3176 51.4865 65.942 46.0162Z" fill="#EF3D4A"/>
</g>
<defs>
<clipPath id="clip0_2_9">
<rect width="78" height="86" fill="white"/>
</clipPath>
</defs>
</svg>
