<svg width="418" height="73" viewBox="0 0 418 73" fill="none" xmlns="http://www.w3.org/2000/svg">
<path fill-rule="evenodd" clip-rule="evenodd" d="M297.143 12.8341C291.026 26.4247 289.018 29.049 280.596 34.4516C273.718 38.8642 269.542 38.1657 268.084 32.358C267.555 30.2485 268.624 28.7585 275.504 22.0121C282.999 14.664 285.044 11.6149 282.477 11.6149C281.892 11.6149 275.269 17.2161 267.76 24.0613C260.251 30.9075 253.934 35.995 253.722 35.3685C253.511 34.7411 255.683 27.7813 258.549 19.9007C263.393 6.58276 264.274 1.64648 261.024 6.03835C259.195 8.50945 250.542 34.7461 250.542 37.8199C250.542 39.1666 250.986 40.2683 251.529 40.2683C252.071 40.2683 255.396 37.8535 258.917 34.9022L265.32 29.5361L265.943 32.6139C267.433 39.9758 274.525 41.5774 282.498 36.3507C284.949 34.7441 287.103 33.5772 287.286 33.757C287.468 33.9369 287.077 35.2559 286.417 36.6866C285.757 38.1173 285.462 39.5312 285.762 39.8266C286.061 40.123 289.338 38.2704 293.044 35.7114C299.283 31.4015 299.859 31.193 300.821 32.8915C302.747 36.2924 306.764 39.2318 310.414 39.9106C313.716 40.5252 321.685 39.0372 326.792 36.8536C328.145 36.2746 328.542 36.5769 328.542 38.1865C328.542 40.7475 328.668 40.7485 333.658 38.2339C336.514 36.7943 338.058 36.4969 338.936 37.2172C339.62 37.7774 342.486 38.7249 345.305 39.3227C349.804 40.2752 351.006 40.1576 355.114 38.3623C360.762 35.8942 360.199 35.9011 360.832 38.2922C361.62 41.2721 364.311 40.7149 372.771 35.8221C376.999 33.3766 380.897 31.3758 381.432 31.3758C381.968 31.3758 383.325 32.6514 384.448 34.2096C387.196 38.0234 391.51 39.63 397.479 39.0628C404.659 38.3811 419.252 30.7603 417.22 28.7526C416.785 28.3228 415.217 28.7279 413.735 29.6547C408.093 33.183 398.95 37.3021 396.76 37.3031C392.779 37.3051 387.835 34.6403 385.941 31.4737C384.935 29.79 383.42 28.4166 382.576 28.4226C381.732 28.4285 377.667 30.4243 373.542 32.8579C363.895 38.5481 362.608 38.5589 365.953 32.9192C369.332 27.2221 367.69 26.1688 362.564 30.7445C354.789 37.6845 348.771 38.9719 341.421 35.2668C337.623 33.3529 337.229 33.3272 334.874 34.8518C331.251 37.1974 331.081 36.1343 334.552 32.848C337.218 30.3246 338.512 27.4236 336.972 27.4236C336.659 27.4236 334.43 28.7644 332.02 30.4026C318.526 39.5756 307.098 39.8246 302.737 31.0399C302.02 29.5944 301.12 28.4137 300.737 28.4156C300.355 28.4186 298.037 29.7347 295.586 31.3413C293.135 32.9478 290.961 34.0949 290.755 33.8914C290.195 33.3381 292.341 29.6774 296.009 24.9288C299.616 20.2603 305.17 7.82869 305.701 3.23526C305.936 1.20877 305.573 0.200964 304.542 0.00730646C303.486 -0.190303 301.294 3.60874 297.143 12.8341ZM196.005 3.13349C195.09 4.5128 192.207 10.4322 189.597 16.2854L184.853 26.9296L178.448 30.0943C170.273 34.1335 157.704 37.5027 152.266 37.1124C148.693 36.8565 147.99 36.4495 147.707 34.4734C147.523 33.1879 147.861 31.6535 148.457 31.0646C149.826 29.712 149.869 27.4236 148.527 27.4236C147.968 27.4236 145.156 28.9363 142.277 30.785C136.071 34.7708 130.422 36.8615 128.168 36.0068C127.161 35.6244 126.542 34.2491 126.542 32.3945C126.542 29.0055 125.116 28.471 123.59 31.2879C121.447 35.244 111.542 39.298 111.542 36.2183C111.542 35.6215 112.276 33.6049 113.173 31.7365C115.277 27.3555 114.474 26.6935 110.214 29.295C106.188 31.7533 89.0032 49.1587 82.5862 57.2775C80.1352 60.379 78.0202 62.8066 77.8862 62.6742C77.7522 62.5418 79.6812 56.075 82.1742 48.3031C84.6662 40.5311 86.5002 33.9695 86.2502 33.7215C85.9992 33.4744 84.1432 34.2343 82.1252 35.41C77.0132 38.39 76.4592 37.0008 80.9482 32.4597C85.8952 27.4543 83.8772 26.0018 78.5642 30.7445C70.7892 37.6845 64.7712 38.9719 57.4212 35.2668C53.6232 33.3529 53.2292 33.3272 50.8742 34.8518C47.2512 37.1974 47.0812 36.1343 50.5522 32.848C53.2272 30.3167 54.5112 27.4236 52.9602 27.4236C52.6402 27.4236 50.5032 28.9245 48.2102 30.7583C39.7562 37.5235 33.9162 38.9393 29.2932 35.3468C27.1692 33.6958 22.8382 25.6155 23.7502 25.0059C23.9112 24.8992 26.1592 23.6137 28.7462 22.1504C33.4202 19.5064 36.5422 16.2162 36.5422 13.9358C36.5422 11.5023 33.3612 9.63879 29.2212 9.64867C25.0782 9.65757 15.4132 13.3746 14.1092 15.4604C13.7362 16.0562 12.5362 17.0175 11.4422 17.5955C9.70322 18.5154 9.83622 17.8999 12.4982 12.6889C15.7232 6.37725 16.1552 4.69856 14.5532 4.69856C13.2392 4.69856 6.63822 17.8771 2.55622 28.6498C-0.196779 35.9139 -0.508779 37.5353 0.594221 38.8484C1.72922 40.2001 2.08022 39.7357 3.20522 35.3923C3.92022 32.6326 5.26822 29.1557 6.20222 27.6647C12.6322 17.393 26.9882 9.32262 32.1692 13.0663C33.9772 14.3735 33.9592 14.5079 31.6262 16.9612C30.2972 18.3583 27.2972 20.4164 24.9602 21.5349C21.0482 23.4053 20.7732 23.7847 21.5012 26.2943C24.6582 37.1697 32.0342 41.6762 41.1002 38.2704C43.2152 37.476 44.0302 37.5837 44.9162 38.7753C45.9162 40.1201 46.4652 40.0657 49.8152 38.2892C53.1702 36.5097 53.8892 36.4396 56.3152 37.6519C61.1292 40.0598 66.1322 40.4639 70.2202 38.7763C73.7402 37.3229 74.0922 37.3357 75.2882 38.9522C76.3752 40.4204 77.0362 40.5173 79.5582 39.5766C81.1992 38.965 82.5422 38.7852 82.5422 39.1784C82.5422 39.5717 80.2922 46.823 77.5422 55.2925C74.7922 63.7621 72.5422 70.961 72.5422 71.289C72.5422 73.8283 76.3572 70.052 83.9652 59.9838C88.8732 53.4883 96.2362 44.9674 100.327 41.0488L107.765 33.922L109.185 36.6016C110.966 39.96 115.491 40.207 120.455 37.2172C123.501 35.3824 123.963 35.329 124.755 36.7271C126.161 39.2101 132.547 38.6479 138.901 35.4812C143.742 33.0684 144.542 32.9063 144.542 34.34C144.542 35.2579 145.432 36.8061 146.521 37.7794C149.497 40.4412 159.694 39.379 172.361 35.0889L182.681 31.5942L182.023 35.4367C181.135 40.6338 182.503 40.4175 189.295 34.2837C193.138 30.8127 195.147 29.6023 195.872 30.3186C197.08 31.5122 193.384 35.9189 190.384 36.8595C189.371 37.1777 188.542 38.1044 188.542 38.9196C188.542 39.8691 189.171 40.2159 190.292 39.8859C191.255 39.6013 194.292 38.8445 197.042 38.2023C204.816 36.3862 216.542 30.785 216.542 28.8879C216.542 27.9918 216.204 27.4276 215.792 27.6331C210.173 30.4323 201.583 34.2975 199.926 34.7718C198.024 35.3162 197.821 34.999 197.926 31.6476C198.087 26.483 195.308 26.235 189.769 30.9194C184.177 35.6482 184.304 33.2966 190.033 26.0078C198.64 15.0553 203.566 1.82531 199.355 0.968677C198.388 0.772055 196.958 1.69588 196.005 3.13349ZM195.532 12.6217C191.345 20.8186 190.601 19.5173 194.594 10.9806C196.338 7.25365 197.964 4.72326 198.209 5.35857C198.454 5.9929 197.249 9.26136 195.532 12.6217ZM157.292 15.3616C151.099 15.5918 149.542 15.9564 149.542 17.1746C149.542 18.4779 150.668 18.5984 157.292 18.0016C165.497 17.2616 165.955 17.142 165.396 15.8763C165.201 15.4347 161.554 15.2025 157.292 15.3616Z" fill="black"/>
<line x1="19" y1="52.5" x2="71" y2="52.5" stroke="#939393"/>
<line x1="98" y1="52.5" x2="367" y2="52.5" stroke="#939393"/>
</svg>
