<svg width="126" height="161" viewBox="0 0 126 161" fill="none" xmlns="http://www.w3.org/2000/svg">
<path fill-rule="evenodd" clip-rule="evenodd" d="M55.7667 0.143364C35.7325 0.9362 20.7374 4.70408 3.85231 13.1877L0 15.1232V49.7282C0 70.595 0.0973472 85.5908 0.245325 87.5013C1.87919 108.605 10.0241 126.409 23.4724 138.274C34.2454 147.778 48.1626 155.947 61.0452 160.328L63.0218 161L65.4479 160.167C79.3663 155.387 95.5306 145.44 105.31 135.638C110.555 130.38 114.21 125.213 117.656 118.187C121.449 110.452 123.658 103.319 124.975 94.5624C125.925 88.2413 125.963 86.5684 125.959 50.3766L125.955 14.9974L122.719 13.4285C113.59 9.00289 109.175 7.18774 102.973 5.3097C89.5765 1.25388 73.1447 -0.544564 55.7667 0.143364ZM75.9455 10.693C90.9423 12.0374 102.242 15.006 114.285 20.765L115.936 21.5546L115.923 47.6357L115.91 73.717L107.889 65.5301L99.8689 57.3431L92.4187 64.9953L84.9684 72.6475L73.9934 61.3117L63.0181 49.9759L56.4102 56.8099C52.7759 60.5685 47.8439 65.6338 45.4504 68.0661L41.0981 72.4885L33.6943 65.0565C29.6224 60.9687 26.1663 57.6244 26.0147 57.6244C25.863 57.6244 25.3232 58.0941 24.8152 58.6686C24.3074 59.243 20.8274 62.8303 17.0822 66.6407L10.2728 73.5683V47.5212V21.474L13.0245 20.1613C24.7815 14.5523 37.5476 11.4964 53.5654 10.4569C57.6868 10.1896 72.0154 10.3407 75.9455 10.693ZM50.7526 16.8733C48.2925 17.0597 45.6815 17.6324 43.4149 18.483L42.1919 18.942L42.119 20.4706L42.0464 21.9996H40.3458H38.6454V33.4241V44.8486H62.9822H87.3189V33.4241V21.9996H85.6068H83.8947V20.5166V19.0339L82.7329 18.5326C78.3089 16.6246 70.6603 16.2364 65.1394 17.6396C63.1406 18.1477 62.7919 18.1744 61.9598 17.8843C59.4811 17.019 54.6189 16.5807 50.7526 16.8733ZM57.7234 21.2728C58.5979 21.4116 59.6711 21.6406 60.1082 21.7814L60.9031 22.0376V30.7571C60.9031 38.9471 60.8772 39.4687 60.4751 39.3464C57.6748 38.4953 50.2116 38.484 46.9003 39.3258L46.2277 39.4968V30.7672V22.0376L47.0226 21.777C49.2222 21.0559 54.7235 20.7967 57.7234 21.2728ZM78.2691 21.559L79.6143 21.888L79.6787 30.6834C79.7393 38.9865 79.7188 39.4712 79.3118 39.3474C76.9779 38.6378 70.1651 38.4857 67.1006 39.0749C66.0461 39.2776 65.1558 39.4434 65.1223 39.4434C65.0888 39.4434 65.0612 35.5227 65.0612 30.7311V22.0185L66.1007 21.7357C66.6723 21.5802 67.6355 21.3608 68.2409 21.2482C69.8114 20.9564 76.6736 21.1691 78.2691 21.559ZM29.0706 77.7809C31.6831 78.1099 34.5397 79.0216 37.2695 80.3977C41.1037 82.3303 44.5241 82.8639 47.922 82.0593C48.7868 81.8547 50.7509 81.0734 52.2872 80.323C56.2261 78.3993 58.9831 77.718 62.8599 77.7104C67.3009 77.7018 69.8246 78.3538 74.7805 80.7911C79.4903 83.1069 83.5787 82.9858 88.7349 80.3768C95.8848 76.7593 102.632 76.7099 110.048 80.2208C111.739 81.0218 113.674 81.808 114.346 81.9684C115.019 82.1288 115.642 82.3279 115.73 82.4109C115.898 82.5689 115.571 88.5914 115.317 90.0226C115.171 90.8402 115.158 90.8478 114.146 90.6879C112.254 90.3882 109.714 89.5194 107.544 88.43C104.615 86.9591 102.901 86.4151 100.621 86.2323C97.9601 86.0191 95.693 86.5483 92.2206 88.1939C90.6681 88.9295 88.6701 89.7516 87.7802 90.0206C82.0991 91.7392 76.7419 91.2075 70.6821 88.3239C64.5774 85.4189 61.3869 85.4189 55.2822 88.3239C47.7013 91.9313 40.9604 91.8684 33.5858 88.1212C28.5697 85.5727 24.3343 85.537 19.4731 88.002C17.0693 89.2211 13.6937 90.4213 11.9595 90.6737L10.8332 90.8373L10.6744 89.8936C10.5869 89.3745 10.4445 87.4507 10.3582 85.6186L10.2009 82.2876L11.5755 81.9785C12.3315 81.8087 14.0527 81.1279 15.4007 80.4658C20.4564 77.9824 24.4471 77.1986 29.0706 77.7809ZM33.2 100.186L36.444 103.438L39.7431 100.131L43.0421 96.8245L44.268 98.0372L45.4939 99.2501V101.965V104.679L40.969 109.219L36.444 113.759L32.0414 109.342L27.6388 104.925V101.983V99.0415L28.668 97.988C29.2342 97.4087 29.7555 96.9345 29.8266 96.9345C29.8976 96.9345 31.4157 98.3978 33.2 100.186ZM59.5579 100.128C61.3028 101.885 62.8408 103.322 62.9753 103.322C63.1101 103.322 64.6784 101.861 66.4607 100.074L69.7015 96.8254L70.8056 97.9138L71.9097 99.0022V101.964V104.925L67.5071 109.342L63.1044 113.759L58.5795 109.219L54.0546 104.679V101.86V99.0415L55.0838 97.988C55.65 97.4087 56.1745 96.9345 56.2493 96.9345C56.3241 96.9345 57.813 98.3718 59.5579 100.128ZM86.2763 100.186L89.5203 103.438L92.8193 100.131L96.1183 96.8245L97.3442 98.0372L98.5701 99.2501V101.965V104.679L94.0452 109.219L89.5203 113.759L85.1176 109.342L80.715 104.925V101.983V99.0415L81.7442 97.988C82.3105 97.4087 82.8317 96.9345 82.9029 96.9345C82.9738 96.9345 84.492 98.3978 86.2763 100.186ZM66.403 116.593L69.7015 113.287L70.8056 114.375L71.9097 115.463V118.425V121.386L67.5071 125.803L63.1044 130.22L58.5795 125.68L54.0546 121.14V118.32V115.501L55.2103 114.322L56.3657 113.144L59.735 116.522L63.1044 119.9L66.403 116.593ZM33.2 116.648L36.444 119.9L39.688 116.648C41.4723 114.859 43.0455 113.396 43.1837 113.396C43.3222 113.396 43.8984 113.87 44.4647 114.449L45.4939 115.503V118.321V121.14L40.969 125.68L36.444 130.22L32.0414 125.803L27.6388 121.386V118.444V115.503L28.668 114.449C29.2342 113.87 29.7555 113.396 29.8266 113.396C29.8976 113.396 31.4157 114.859 33.2 116.648ZM86.2763 116.648L89.5203 119.9L92.8193 116.593L96.1183 113.286L97.3442 114.498L98.5701 115.711V118.426V121.14L94.0452 125.68L89.5203 130.22L85.1176 125.803L80.715 121.386V118.444V115.503L81.7442 114.449C82.3105 113.87 82.8317 113.396 82.9029 113.396C82.9738 113.396 84.492 114.859 86.2763 116.648ZM45.4939 134.77V137.613L44.1961 138.9L42.8983 140.187L40.7107 138.677C39.5075 137.846 38.1537 136.889 37.7025 136.55L36.8819 135.935L40.0202 132.775L43.1583 129.616L44.3262 130.771L45.4939 131.927V134.77ZM66.403 133.054L69.7015 129.748L70.8056 130.836L71.9097 131.924V134.758V137.591L67.4484 142.077L62.987 146.564L58.5208 142.082L54.0546 137.601V134.781V131.962L55.2103 130.784L56.3657 129.605L59.735 132.983L63.1044 136.361L66.403 133.054ZM86.0877 132.92C87.7607 134.604 89.0797 136.028 89.0191 136.085C88.9584 136.141 87.5939 137.087 85.9867 138.186L83.0648 140.185L81.8898 139.022L80.715 137.86V134.912V131.964L81.7442 130.91C82.3105 130.331 82.8349 129.857 82.9097 129.857C82.9845 129.857 84.4147 131.235 86.0877 132.92Z" fill="#275D38"/>
</svg>
